HIERARCHY
ROOT Hips
{
	OFFSET -0.104279 88.258125 2.461052
	CHANNELS 6 Xposition Yposition Zposition Zrotation Yrotation Xrotation 
	JOINT Spine
	{
		OFFSET -0.000000 8.814246 -2.080107
		CHANNELS 3 Zrotation Yrotation Xrotation
		JOINT Spine1
		{
			OFFSET 0.000000 8.844141 0.000000
			CHANNELS 3 Zrotation Yrotation Xrotation
			JOINT Spine2
			{
				OFFSET -0.000000 11.682268 0.000000
				CHANNELS 3 Zrotation Yrotation Xrotation
				JOINT Spine3
				{
					OFFSET 0.000000 11.746700 0.000000
					CHANNELS 3 Zrotation Yrotation Xrotation
					JOINT Neck
					{
						OFFSET 0.000000 17.658264 -0.000000
						CHANNELS 3 Zrotation Yrotation Xrotation
						JOINT Neck1
						{
							OFFSET -0.000000 5.101515 0.000000
							CHANNELS 3 Zrotation Yrotation Xrotation
							JOINT Head
							{
								OFFSET 0.000000 5.101515 -0.000000
								CHANNELS 3 Zrotation Yrotation Xrotation
								JOINT HeadEnd
								{
									OFFSET -0.000000 11.655085 -0.000000
									CHANNELS 3 Zrotation Yrotation Xrotation
									End Site
									{
										OFFSET 0.000000 0.000000 0.000000
									}
								}
							}
						}
					}
					JOINT RightShoulder
					{
						OFFSET -2.625389 11.175210 -0.000000
						CHANNELS 3 Zrotation Yrotation Xrotation
						JOINT RightArm
						{
							OFFSET 0.000000 10.434715 0.000000
							CHANNELS 3 Zrotation Yrotation Xrotation
							JOINT RightForeArm
							{
								OFFSET -0.000000 29.628420 -0.000000
								CHANNELS 3 Zrotation Yrotation Xrotation
								JOINT RightHand
								{
									OFFSET -0.000000 22.857611 0.000000
									CHANNELS 3 Zrotation Yrotation Xrotation
									JOINT RightHandThumb1
									{
										OFFSET -2.867323 3.959563 2.944291
										CHANNELS 3 Zrotation Yrotation Xrotation
										JOINT RightHandThumb2
										{
											OFFSET -0.000000 3.350399 0.000000
											CHANNELS 3 Zrotation Yrotation Xrotation
											JOINT RightHandThumb3
											{
												OFFSET 0.000000 3.756509 -0.000000
												CHANNELS 3 Zrotation Yrotation Xrotation
												JOINT RightHandThumb4
												{
													OFFSET -0.000000 3.147345 0.000000
													CHANNELS 3 Zrotation Yrotation Xrotation
													End Site
													{
														OFFSET 0.000000 0.000000 0.000000
													}
												}
											}
										}
									}
									JOINT RightHandIndex1
									{
										OFFSET -0.086752 10.030893 2.345280
										CHANNELS 3 Zrotation Yrotation Xrotation
										JOINT RightHandIndex2
										{
											OFFSET -0.000000 4.061090 0.000000
											CHANNELS 3 Zrotation Yrotation Xrotation
											JOINT RightHandIndex3
											{
												OFFSET -0.000000 3.248873 -0.000000
												CHANNELS 3 Zrotation Yrotation Xrotation
												JOINT RightHandIndex4
												{
													OFFSET -0.000000 2.639709 -0.000000
													CHANNELS 3 Zrotation Yrotation Xrotation
													End Site
													{
														OFFSET 0.000000 0.000000 0.000000
													}
												}
											}
										}
									}
									JOINT RightHandMiddle1
									{
										OFFSET 0.104102 9.502952 0.006768
										CHANNELS 3 Zrotation Yrotation Xrotation
										JOINT RightHandMiddle2
										{
											OFFSET 0.000000 4.568727 -0.000000
											CHANNELS 3 Zrotation Yrotation Xrotation
											JOINT RightHandMiddle3
											{
												OFFSET -0.000000 3.654981 0.000000
												CHANNELS 3 Zrotation Yrotation Xrotation
												JOINT RightHandMiddle4
												{
													OFFSET -0.000000 2.741236 0.000000
													CHANNELS 3 Zrotation Yrotation Xrotation
													End Site
													{
														OFFSET 0.000000 0.000000 0.000000
													}
												}
											}
										}
									}
									JOINT RightHandRing1
									{
										OFFSET 0.086752 8.921708 -2.267442
										CHANNELS 3 Zrotation Yrotation Xrotation
										JOINT RightHandRing2
										{
											OFFSET -0.000000 4.061090 0.000000
											CHANNELS 3 Zrotation Yrotation Xrotation
											JOINT RightHandRing3
											{
												OFFSET -0.000000 3.654981 -0.000000
												CHANNELS 3 Zrotation Yrotation Xrotation
												JOINT RightHandRing4
												{
													OFFSET -0.000000 2.741236 0.000000
													CHANNELS 3 Zrotation Yrotation Xrotation
													End Site
													{
														OFFSET 0.000000 0.000000 0.000000
													}
												}
											}
										}
									}
									JOINT RightHandPinky1
									{
										OFFSET -0.173504 7.976997 -4.467199
										CHANNELS 3 Zrotation Yrotation Xrotation
										JOINT RightHandPinky2
										{
											OFFSET 0.000000 3.350399 -0.000000
											CHANNELS 3 Zrotation Yrotation Xrotation
											JOINT RightHandPinky3
											{
												OFFSET -0.000000 2.842763 -0.000000
												CHANNELS 3 Zrotation Yrotation Xrotation
												JOINT RightHandPinky4
												{
													OFFSET -0.000000 2.639709 -0.000000
													CHANNELS 3 Zrotation Yrotation Xrotation
													End Site
													{
														OFFSET 0.000000 0.000000 0.000000
													}
												}
											}
										}
									}
									JOINT RightForeArmEnd
									{
										OFFSET 0.000000 0.000000 0.000000
										CHANNELS 3 Zrotation Yrotation Xrotation
										End Site
										{
											OFFSET 0.000000 0.000000 0.000000
										}
									}
								}
								JOINT RightArmEnd
								{
									OFFSET 0.000000 0.000000 0.000000
									CHANNELS 3 Zrotation Yrotation Xrotation
									End Site
									{
										OFFSET 0.000000 0.000000 0.000000
									}
								}
							}
						}
					}
					JOINT LeftShoulder
					{
						OFFSET 2.625389 11.175210 0.000000
						CHANNELS 3 Zrotation Yrotation Xrotation
						JOINT LeftArm
						{
							OFFSET 0.000000 10.813635 -0.000000
							CHANNELS 3 Zrotation Yrotation Xrotation
							JOINT LeftForeArm
							{
								OFFSET 0.000000 28.724781 0.000000
								CHANNELS 3 Zrotation Yrotation Xrotation
								JOINT LeftHand
								{
									OFFSET 0.644384 25.716167 -0.328871
									CHANNELS 3 Zrotation Yrotation Xrotation
									JOINT LeftHandThumb1
									{
										OFFSET 2.867323 3.959563 2.944291
										CHANNELS 3 Zrotation Yrotation Xrotation
										JOINT LeftHandThumb2
										{
											OFFSET -0.000000 3.350399 -0.000000
											CHANNELS 3 Zrotation Yrotation Xrotation
											JOINT LeftHandThumb3
											{
												OFFSET 0.000000 3.756509 -0.000000
												CHANNELS 3 Zrotation Yrotation Xrotation
												JOINT LeftHandThumb4
												{
													OFFSET 0.000000 3.100000 0.000000
													CHANNELS 3 Zrotation Yrotation Xrotation
													End Site
													{
														OFFSET 0.000000 0.000000 0.000000
													}
												}
											}
										}
									}
									JOINT LeftHandIndex1
									{
										OFFSET 0.086752 10.030893 2.345280
										CHANNELS 3 Zrotation Yrotation Xrotation
										JOINT LeftHandIndex2
										{
											OFFSET 0.000000 4.061090 0.000000
											CHANNELS 3 Zrotation Yrotation Xrotation
											JOINT LeftHandIndex3
											{
												OFFSET 0.000000 3.248873 0.000000
												CHANNELS 3 Zrotation Yrotation Xrotation
												JOINT LeftHandIndex4
												{
													OFFSET 0.000000 2.639709 0.000000
													CHANNELS 3 Zrotation Yrotation Xrotation
													End Site
													{
														OFFSET 0.000000 0.000000 0.000000
													}
												}
											}
										}
									}
									JOINT LeftHandMiddle1
									{
										OFFSET -0.104102 9.502952 0.006768
										CHANNELS 3 Zrotation Yrotation Xrotation
										JOINT LeftHandMiddle2
										{
											OFFSET 0.000000 4.568727 -0.000000
											CHANNELS 3 Zrotation Yrotation Xrotation
											JOINT LeftHandMiddle3
											{
												OFFSET 0.000000 3.654981 0.000000
												CHANNELS 3 Zrotation Yrotation Xrotation
												JOINT LeftHandMiddle4
												{
													OFFSET 0.000000 2.741236 0.000000
													CHANNELS 3 Zrotation Yrotation Xrotation
													End Site
													{
														OFFSET 0.000000 0.000000 0.000000
													}
												}
											}
										}
									}
									JOINT LeftHandRing1
									{
										OFFSET -0.086752 8.921708 -2.267442
										CHANNELS 3 Zrotation Yrotation Xrotation
										JOINT LeftHandRing2
										{
											OFFSET 0.000000 4.061090 0.000000
											CHANNELS 3 Zrotation Yrotation Xrotation
											JOINT LeftHandRing3
											{
												OFFSET -0.000000 3.654981 -0.000000
												CHANNELS 3 Zrotation Yrotation Xrotation
												JOINT LeftHandRing4
												{
													OFFSET -0.000000 2.741236 -0.000000
													CHANNELS 3 Zrotation Yrotation Xrotation
													End Site
													{
														OFFSET 0.000000 0.000000 0.000000
													}
												}
											}
										}
									}
									JOINT LeftHandPinky1
									{
										OFFSET 0.173504 7.976997 -4.467199
										CHANNELS 3 Zrotation Yrotation Xrotation
										JOINT LeftHandPinky2
										{
											OFFSET 0.000000 3.350399 0.000000
											CHANNELS 3 Zrotation Yrotation Xrotation
											JOINT LeftHandPinky3
											{
												OFFSET 0.000000 2.842763 -0.000000
												CHANNELS 3 Zrotation Yrotation Xrotation
												JOINT LeftHandPinky4
												{
													OFFSET 0.000000 2.639709 0.000000
													CHANNELS 3 Zrotation Yrotation Xrotation
													End Site
													{
														OFFSET 0.000000 0.000000 0.000000
													}
												}
											}
										}
									}
									JOINT LeftForeArmEnd
									{
										OFFSET 0.000000 0.000000 0.000000
										CHANNELS 3 Zrotation Yrotation Xrotation
										End Site
										{
											OFFSET 0.000000 0.000000 0.000000
										}
									}
								}
								JOINT LeftArmEnd
								{
									OFFSET 0.000000 0.000000 0.000000
									CHANNELS 3 Zrotation Yrotation Xrotation
									End Site
									{
										OFFSET 0.000000 0.000000 0.000000
									}
								}
							}
						}
					}
				}
			}
		}
	}
	JOINT RightUpLeg
	{
		OFFSET -11.289943 -0.000000 -0.000000
		CHANNELS 3 Zrotation Yrotation Xrotation
		JOINT RightLeg
		{
			OFFSET -0.000000 -38.200325 0.000000
			CHANNELS 3 Zrotation Yrotation Xrotation
			JOINT RightFoot
			{
				OFFSET 0.000000 -39.900856 0.000000
				CHANNELS 3 Zrotation Yrotation Xrotation
				JOINT RightToeBase
				{
					OFFSET -0.000000 -0.000000 15.261641
					CHANNELS 3 Zrotation Yrotation Xrotation
					JOINT RightToeBaseEnd
					{
						OFFSET -0.000000 -0.000000 7.370709
						CHANNELS 3 Zrotation Yrotation Xrotation
						End Site
						{
							OFFSET 0.000000 0.000000 0.000000
						}
					}
				}
				JOINT RightLegEnd
				{
					OFFSET 0.000000 0.000000 0.000000
					CHANNELS 3 Zrotation Yrotation Xrotation
					End Site
					{
						OFFSET 0.000000 0.000000 0.000000
					}
				}
			}
			JOINT RightUpLegEnd
			{
				OFFSET 0.000000 0.000000 0.000000
				CHANNELS 3 Zrotation Yrotation Xrotation
				End Site
				{
					OFFSET 0.000000 0.000000 0.000000
				}
			}
		}
	}
	JOINT LeftUpLeg
	{
		OFFSET 11.315661 0.000000 -0.000000
		CHANNELS 3 Zrotation Yrotation Xrotation
		JOINT LeftLeg
		{
			OFFSET -0.000000 -38.200325 0.000000
			CHANNELS 3 Zrotation Yrotation Xrotation
			JOINT LeftFoot
			{
				OFFSET 0.000000 -39.900856 0.000000
				CHANNELS 3 Zrotation Yrotation Xrotation
				JOINT LeftToeBase
				{
					OFFSET -0.000000 0.000000 15.261641
					CHANNELS 3 Zrotation Yrotation Xrotation
					JOINT LeftToeBaseEnd
					{
						OFFSET -0.000000 -0.000000 7.539996
						CHANNELS 3 Zrotation Yrotation Xrotation
						End Site
						{
							OFFSET 0.000000 0.000000 0.000000
						}
					}
				}
				JOINT LeftLegEnd
				{
					OFFSET 0.000000 0.000000 0.000000
					CHANNELS 3 Zrotation Yrotation Xrotation
					End Site
					{
						OFFSET 0.000000 0.000000 0.000000
					}
				}
			}
			JOINT LeftUpLegEnd
			{
				OFFSET 0.000000 0.000000 0.000000
				CHANNELS 3 Zrotation Yrotation Xrotation
				End Site
				{
					OFFSET 0.000000 0.000000 0.000000
				}
			}
		}
	}
}
MOTION
Frames: 4
Frame Time: 0.016667
-11.152891 86.823563 50.571152 -0.084433 -18.262682 -13.438586 -0.459265 0.151362 7.951131 0.833272 -0.163042 4.161194 3.443179 -3.951246 6.408572 3.388151 -1.640074 6.257303 -14.995844 7.478467 4.212892 -0.470988 3.755370 -3.275717 -1.298148 0.386696 -17.203768 0.000000 0.000000 0.000000 85.619606 0.497470 7.392778 69.129807 -12.443612 -4.366620 0.474998 12.747083 31.048361 10.448297 23.647263 -14.813286 10.563550 -1.752899 39.928555 0.000006 -0.000005 -26.387302 -0.000037 0.000032 -18.159607 -0.000004 -0.000004 0.000002 13.119403 16.898615 -8.734562 10.959039 -0.196486 -4.216117 11.055733 0.796297 -3.889717 0.000011 0.000002 -0.000020 16.833931 6.994847 -9.537962 12.003756 -0.644090 -1.793530 11.939843 0.310562 -1.529344 0.000020 0.000032 0.000005 29.144699 -8.843346 -9.497272 17.891750 1.458144 2.694854 17.528261 -0.458747 2.108581 -0.000015 -0.000008 0.000018 38.536846 -24.661188 -11.009852 20.777494 2.222352 8.574093 20.612667 -1.520294 7.322860 0.000730 0.000007 0.000002 0.000000 0.000000 0.000000 0.000000 0.000000 0.000000 -85.931633 -0.939693 13.884511 -36.918797 13.231155 20.272593 -0.317899 -16.878502 69.393608 -3.692277 15.004509 -6.913986 -8.651402 1.663037 40.732975 -0.000006 0.000037 -21.114824 -0.000209 -0.000011 -14.546571 -0.000220 -0.000022 -0.001666 -6.039551 16.814178 -6.077695 -4.982502 -0.429117 3.551616 -5.080343 0.545050 3.362978 0.000021 -0.000254 0.000011 -8.985372 6.935652 -7.749981 -6.498854 -0.759680 1.471468 -6.401130 0.201863 1.273780 0.000952 -0.000043 0.000032 -20.484945 -9.151622 -7.849138 -13.863593 1.504683 -2.333300 -13.710380 -0.348378 -1.762402 0.000335 0.000011 -0.000007 -26.211662 -26.366652 -10.693161 -18.381836 2.758132 -6.821316 -18.253418 -1.000821 -5.656530 -0.001479 -0.000017 -0.000035 0.000000 0.000000 0.000000 0.000000 0.000000 0.000000 4.476646 10.100309 3.557504 0.006035 0.064548 22.628738 -6.157129 -4.057214 12.696836 -0.070953 0.501938 -18.593639 0.000000 0.000000 0.000000 0.000000 0.000000 0.000000 0.000000 0.000000 0.000000 15.025641 10.983125 10.829732 0.404328 1.221236 23.819580 -11.508610 20.545074 17.486599 1.502328 -1.516637 -21.057676 0.000000 0.000000 0.000000 0.000000 0.000000 0.000000 0.000000 0.000000 0.000000 
-11.307848 86.792328 50.593430 0.019290 -18.375982 -13.453896 -0.392146 0.150888 7.968626 0.901716 -0.173596 4.130857 3.354930 -3.715606 6.508688 3.337602 -1.555215 6.191492 -15.062689 7.632107 4.065441 -0.462340 3.837710 -3.385345 -1.316061 0.382901 -17.270037 0.000000 0.000000 0.000000 85.636002 0.500241 7.514686 68.821030 -12.445871 -3.870349 0.483969 12.874660 31.189812 10.360810 23.794630 -14.717129 10.505363 -1.752402 39.945160 0.000006 -0.000004 -26.273792 -0.000036 0.000032 -18.079498 -0.000003 -0.000004 0.000002 12.820346 16.896696 -8.571280 10.755436 -0.218702 -4.141141 10.835917 0.774661 -3.818403 0.000011 0.000002 -0.000019 16.556513 6.989647 -9.422863 11.778411 -0.653136 -1.763122 11.719264 0.302765 -1.503193 0.000021 0.000028 0.000005 28.858969 -8.835202 -9.460456 17.616142 1.474155 2.654822 17.254282 -0.447322 2.077908 -0.000015 0.000019 0.000019 38.313881 -24.646763 -11.108608 20.501472 2.269019 8.468651 20.349243 -1.484162 7.231305 0.000773 0.000007 0.000003 0.000000 0.000000 0.000000 0.000000 0.000000 0.000000 -86.020523 -0.924511 13.709020 -37.241077 12.554602 19.857851 -0.347628 -17.038364 69.274208 -3.278726 14.327616 -6.893027 -8.465315 1.644137 40.811630 -0.000005 0.000037 -20.690573 -0.000205 -0.000011 -14.261190 -0.000372 -0.000022 -0.001629 -4.920767 16.831137 -5.628770 -4.301194 -0.447530 3.464443 -4.401700 0.527831 3.282307 0.000021 -0.000124 0.000010 -8.029228 6.942990 -7.442449 -5.830484 -0.767437 1.437757 -5.730148 0.196149 1.245826 0.000958 -0.000043 0.000029 -19.565126 -9.171865 -7.814207 -13.190199 1.519958 -2.294599 -13.032163 -0.340352 -1.731755 0.000252 0.000011 -0.000007 -25.272661 -26.448030 -10.993542 -17.813704 2.794856 -6.715764 -17.681459 -0.979442 -5.568694 -0.001460 -0.000017 -0.000035 0.000000 0.000000 0.000000 0.000000 0.000000 0.000000 4.516493 10.266173 3.528459 0.008029 0.074055 22.846992 -6.256559 -3.964213 12.523444 -0.060788 0.488254 -18.580482 0.000000 0.000000 0.000000 0.000000 0.000000 0.000000 0.000000 0.000000 0.000000 14.883080 10.725447 10.713013 0.404574 1.212975 24.108786 -11.510212 20.688625 17.561071 1.481710 -1.510140 -21.144957 0.000000 0.000000 0.000000 0.000000 0.000000 0.000000 0.000000 0.000000 0.000000 
-11.461035 86.760078 50.612545 0.116114 -18.455917 -13.467878 -0.321419 0.149518 7.975703 0.977444 -0.182822 4.104451 3.254945 -3.460855 6.590597 3.283227 -1.465118 6.133039 -15.106135 7.789402 3.951908 -0.443511 3.925876 -3.474593 -1.331797 0.378767 -17.334536 0.000000 0.000000 0.000000 85.646530 0.502669 7.633662 68.531105 -12.505620 -3.448221 0.493437 12.995205 31.347507 10.286936 23.974869 -14.647388 10.444963 -1.751550 39.962620 0.000005 -0.000004 -26.157278 -0.000036 0.000031 -17.995367 -0.000003 -0.000003 0.000002 12.518459 16.895651 -8.425037 10.558584 -0.242341 -4.062387 10.625096 0.751687 -3.743945 0.000010 0.000002 -0.000019 16.279926 6.984551 -9.317574 11.559892 -0.662691 -1.730991 11.505351 0.294443 -1.475767 0.000022 0.000024 0.000004 28.578163 -8.827065 -9.428788 17.347082 1.490869 2.612427 16.987249 -0.435303 2.045267 -0.000016 0.000019 0.000019 38.107224 -24.629866 -11.206310 20.233725 2.317773 8.357440 20.092249 -1.446118 7.134972 0.000809 0.000007 0.000004 0.000000 0.000000 0.000000 0.000000 0.000000 0.000000 -86.108643 -0.909567 13.508453 -37.606155 11.636312 19.427595 -0.391780 -17.255642 69.145042 -2.730871 13.621815 -6.843222 -8.296874 1.626864 40.882679 -0.000005 0.000037 -20.308601 -0.000202 -0.000011 -14.003378 -0.000496 -0.000022 -0.001602 -3.892281 16.841755 -5.211614 -3.696217 -0.466673 3.374424 -3.801674 0.509779 3.198936 0.000020 0.000015 0.000010 -7.142976 6.948309 -7.154359 -5.234398 -0.775368 1.402585 -5.130986 0.190082 1.216751 0.000959 -0.000043 0.000028 -18.701157 -9.189364 -7.770576 -12.578640 1.535481 -2.253100 -12.417001 -0.331735 -1.699061 0.000186 0.000011 -0.000007 -24.381920 -26.524471 -11.259242 -17.293850 2.832733 -6.602083 -17.156689 -0.956170 -5.473927 -0.001442 -0.000017 -0.000035 0.000000 0.000000 0.000000 0.000000 0.000000 0.000000 4.562378 10.428956 3.495383 0.009599 0.082865 23.066360 -6.356603 -3.856347 12.357203 -0.048561 0.475243 -18.570704 0.000000 0.000000 0.000000 0.000000 0.000000 0.000000 0.000000 0.000000 0.000000 14.742974 10.447030 10.578710 0.404673 1.204591 24.404499 -11.508783 20.829666 17.630646 1.460575 -1.501403 -21.232689 0.000000 0.000000 0.000000 0.000000 0.000000 0.000000 0.000000 0.000000 0.000000 
-11.613150 86.727249 50.626007 0.201932 -18.493784 -13.474421 -0.247717 0.146761 7.973034 1.060235 -0.191676 4.086985 3.143744 -3.194687 6.651909 3.227010 -1.372761 6.084055 -15.129128 7.941058 3.873217 -0.417812 4.014097 -3.542912 -1.345048 0.374395 -17.392538 0.000000 0.000000 0.000000 85.649254 0.506159 7.752353 68.260262 -12.622515 -3.093470 0.503775 13.096609 31.502811 10.255436 24.175707 -14.598926 10.385728 -1.750605 39.979515 0.000005 -0.000004 -26.045128 -0.000035 0.000031 -17.912241 -0.000002 -0.000003 0.000002 12.234538 16.893810 -8.309919 10.381193 -0.266745 -3.983001 10.436152 0.727931 -3.669352 0.000010 0.000003 -0.000019 16.024155 6.978943 -9.231369 11.361584 -0.672492 -1.698335 11.310990 0.285812 -1.448092 0.000023 0.000020 0.000004 28.318562 -8.818360 -9.403462 17.099701 1.507754 2.569104 16.742771 -0.422981 2.011777 -0.000016 -0.000006 0.000019 37.925388 -24.610308 -11.294301 19.987797 2.367312 8.243561 19.854492 -1.406984 7.036720 0.000836 0.000007 0.000005 0.000000 0.000000 0.000000 0.000000 0.000000 0.000000 -86.191093 -0.894037 13.293996 -38.003780 10.522733 19.001143 -0.449673 -17.517223 68.983078 -2.074552 12.965610 -6.779493 -8.143042 1.610843 40.947739 -0.000004 0.000038 -19.959354 -0.000198 -0.000011 -13.766058 -0.000589 -0.000023 -0.001587 -2.940046 16.845568 -4.827444 -3.163995 -0.486216 3.283623 -3.276112 0.491226 3.114965 0.000020 0.000156 0.000009 -6.312691 6.951748 -6.887241 -4.708132 -0.783311 1.366771 -4.601340 0.183784 1.187228 0.000949 -0.000042 0.000028 -17.877491 -9.205534 -7.714592 -12.028650 1.551023 -2.209615 -11.864165 -0.322691 -1.665069 0.000144 0.000011 -0.000007 -23.523579 -26.601349 -11.480663 -16.822079 2.871176 -6.482075 -16.678801 -0.931360 -5.374128 -0.001425 -0.000017 -0.000035 0.000000 0.000000 0.000000 0.000000 0.000000 0.000000 4.614866 10.571628 3.455820 0.010827 0.090563 23.273523 -6.458636 -3.746336 12.208482 -0.035175 0.462775 -18.566826 0.000000 0.000000 0.000000 0.000000 0.000000 0.000000 0.000000 0.000000 0.000000 14.610484 10.156035 10.415467 0.404468 1.195967 24.708063 -11.502081 20.957031 17.698679 1.438652 -1.490507 -21.322813 0.000000 0.000000 0.000000 0.000000 0.000000 0.000000 0.000000 0.000000 0.000000 
